<?xml version="1.0" encoding="UTF-8"?>
<svg version="1.1" xmlns="http://www.w3.org/2000/svg" width="740" height="395">
<path d="M0 0 C244.2 0 488.4 0 740 0 C740 130.35 740 260.7 740 395 C495.8 395 251.6 395 0 395 C0 264.65 0 134.3 0 0 Z " fill="#FEFEFE" transform="translate(0,0)"/>
<path d="M0 0 C4.25745008 2.13237637 6.37009656 4.34383022 8.06515503 8.80055237 C9.6145401 14.47853506 9.26098321 20.34895323 9.22705078 26.18725586 C9.22734283 27.50501007 9.22763489 28.82276428 9.22793579 30.18045044 C9.22850747 33.77708387 9.21678332 37.37358276 9.20278788 40.97018504 C9.19024951 44.73512631 9.18910757 48.50007098 9.18673706 52.26502991 C9.1805314 59.38697742 9.16413299 66.50886322 9.14403808 73.63078362 C9.12165059 81.74202839 9.11067849 89.85327618 9.10064721 97.96454418 C9.07976592 114.64306654 9.0442029 131.32152295 9 148 C5.37 148 1.74 148 -2 148 C-2 103.45 -2 58.9 -2 13 C-8.51641368 11.3864931 -8.51641368 11.3864931 -12.0703125 13.5546875 C-13.07835937 14.32039062 -14.08640625 15.08609375 -15.125 15.875 C-16.25871052 16.71408789 -17.3928373 17.55261359 -18.52734375 18.390625 C-19.10081543 18.82439453 -19.67428711 19.25816406 -20.26513672 19.70507812 C-23.01714263 21.75920694 -25.85340721 23.68663499 -28.6875 25.625 C-32.34227877 28.15422859 -35.99008489 30.6923301 -39.625 33.25 C-46.08366868 37.77945596 -52.60799966 42.21345881 -59.12109375 46.6640625 C-63.48143224 49.64398372 -67.83623498 52.6318489 -72.1875 55.625 C-73.1626355 56.29571533 -73.1626355 56.29571533 -74.1574707 56.97998047 C-76.10510172 58.31981085 -78.05258085 59.65986168 -80 61 C-89.29016106 67.39312846 -98.58835661 73.77424037 -107.89770508 80.1394043 C-113.94341201 84.27411547 -119.98132925 88.42003518 -126.01367188 92.57421875 C-128.66528593 94.3994641 -131.32148876 96.21432584 -134 98 C-134.45039605 100.0588454 -134.45039605 100.0588454 -134.37181091 102.47659302 C-134.37856842 103.41858047 -134.38532593 104.36056793 -134.39228821 105.33110046 C-134.38456894 106.36797501 -134.37684967 107.40484955 -134.36889648 108.47314453 C-134.37266296 109.56273972 -134.37642944 110.6523349 -134.38031006 111.77494812 C-134.38675991 114.14798242 -134.38639632 116.52104253 -134.38012505 118.8940773 C-134.37104749 122.6519631 -134.38120247 126.40934638 -134.39674377 130.16720581 C-134.4318598 139.50638008 -134.43917508 148.84552349 -134.43664551 158.18475342 C-134.43478197 166.06404832 -134.44870882 173.94306042 -134.48512459 181.82229233 C-134.49594787 185.52046851 -134.48381666 189.21813059 -134.47129822 192.91629028 C-134.48020551 195.19436142 -134.49028089 197.47242839 -134.50170898 199.75048828 C-134.48709373 201.28758202 -134.48709373 201.28758202 -134.47218323 202.85572815 C-134.53436187 209.08120905 -135.43496235 213.80269663 -139 219 C-143.33573262 223.07296094 -147.79740769 223.36035861 -153.51953125 223.26953125 C-157.27169406 222.86181592 -159.11120465 221.40732945 -162 219 C-162.70253906 218.45214844 -163.40507812 217.90429688 -164.12890625 217.33984375 C-169.63086399 213.03895544 -174.94256749 208.51923587 -180.25878906 203.9934082 C-183.9110811 200.8938926 -187.63064461 197.91349327 -191.43359375 195 C-197.05832496 190.61664783 -202.5560874 186.0721248 -208.08007812 181.56298828 C-209.80386195 180.15967393 -211.5330537 178.76353167 -213.265625 177.37109375 C-226.41518692 166.75443925 -226.41518692 166.75443925 -228 162 C-228.14319551 160.40006557 -228.22039526 158.79355688 -228.25 157.1875 C-228.27578125 156.35605469 -228.3015625 155.52460938 -228.328125 154.66796875 C-227.68932546 149.47392013 -225.56225619 146.22894691 -221.55859375 143 C-220.19501334 141.98624735 -218.8207751 140.98670966 -217.4375 140 C-216.71731689 139.4730957 -215.99713379 138.94619141 -215.25512695 138.40332031 C-210.75670819 135.14843663 -206.17109992 132.16801531 -201.34765625 129.4140625 C-197.67401053 127.20131749 -194.28834792 124.61598926 -190.84375 122.06640625 C-187.00225357 119.2749892 -183.04731477 116.67184421 -179.0859375 114.0546875 C-174.90594298 111.27155191 -170.77662876 108.42452285 -166.69720459 105.49588013 C-164.17565332 103.73265862 -161.61845301 102.22666558 -158.89849854 100.79049683 C-151.26773163 96.69435586 -151.26773163 96.69435586 -146.10453796 90.03107452 C-144.75067855 84.54486127 -145.11448349 78.98164286 -145.359375 73.3828125 C-145.37697266 71.59453071 -145.38686909 69.80615824 -145.38946533 68.01779175 C-145.41407021 63.33796561 -145.53062806 58.66522336 -145.67095947 53.98760986 C-145.87813154 46.4844614 -145.93437631 38.97819846 -146.00867462 31.47280502 C-146.04632226 28.85869239 -146.11746594 26.24725626 -146.19525146 23.63406372 C-146.22789364 22.03225491 -146.2601608 20.43043841 -146.29199219 18.82861328 C-146.32215927 18.10646133 -146.35232635 17.38430939 -146.38340759 16.64027405 C-146.43198394 13.09308495 -146.1114372 11.17465015 -144.18487549 8.15524292 C-140.06352797 4.08979155 -136.9483351 2.20562366 -131.26171875 1.60546875 C-126.29804754 1.72054348 -123.0643476 3.87839486 -119.0625 6.625 C-118.36229736 7.08503418 -117.66209473 7.54506836 -116.94067383 8.01904297 C-114.94997286 9.33109063 -112.97488449 10.66432933 -111 12 C-110.12601562 12.5671875 -109.25203125 13.134375 -108.3515625 13.71875 C-103.49890759 16.87209976 -98.84925271 20.28554801 -94.18359375 23.70703125 C-82.75338036 33.44264575 -82.75338036 33.44264575 -70.11328125 38.83984375 C-67.43932217 37.77717979 -65.47639117 36.30993304 -63.1875 34.5625 C-58.69040977 31.20771878 -54.11963714 28.02831101 -49.4375 24.9375 C-45.34392598 22.22945116 -41.26186134 19.5161073 -37.25 16.6875 C-36.47785156 16.15382812 -35.70570313 15.62015625 -34.91015625 15.0703125 C-32.44276955 13.31499042 -30.03306976 11.50939226 -27.62109375 9.6796875 C-10.30369256 -3.17959654 -10.30369256 -3.17959654 0 0 Z " fill="#162228" transform="translate(294,122)"/>
<path d="M0 0 C7.52521006 6.21647788 11.89271617 11.74613558 13.875 21.375 C14.30517543 26.46770364 14.32269524 31.54892958 14.30859375 36.65625 C14.31316664 38.12016031 14.31847546 39.58406849 14.32447815 41.04797363 C14.33336088 44.10059387 14.33104115 47.1529518 14.32104492 50.20556641 C14.3095491 54.09227395 14.3297999 57.97807371 14.35896206 61.86466217 C14.37741915 64.88297141 14.37701307 67.90106675 14.37132454 70.91941833 C14.37117255 72.35136694 14.37711437 73.78333118 14.38961601 75.21522522 C14.4819368 87.51725108 12.33930625 96.56728443 4.36328125 106.10546875 C-2.76837916 112.61017 -12.45961303 115.7666551 -21.99609375 115.578125 C-24.125 115.375 -24.125 115.375 -26.6875 114.375 C-28.56740056 111.75948617 -28.69018392 109.48235994 -28.4921875 106.30859375 C-28.125 104.375 -28.125 104.375 -26.75 102 C-23.43498832 99.94784992 -20.39240643 99.51350993 -16.5859375 98.84375 C-11.00504983 97.78072378 -8.09956415 95.71012726 -4.8125 91.1875 C-2.08452129 86.8426775 -1.31012181 83.46584978 -1.125 78.375 C-1.88683594 78.88160156 -1.88683594 78.88160156 -2.6640625 79.3984375 C-3.35242188 79.84445313 -4.04078125 80.29046875 -4.75 80.75 C-5.42289062 81.19085938 -6.09578125 81.63171875 -6.7890625 82.0859375 C-14.1909654 86.17059963 -21.86715955 86.31000598 -30.125 85.375 C-40.09733219 82.15405133 -47.20796141 76.43219767 -52 67.1875 C-54.75944121 61.38536369 -55.30263332 56.42069818 -55.36328125 50.0234375 C-55.371353 49.20936432 -55.37942474 48.39529114 -55.38774109 47.55654907 C-55.40155343 45.83345652 -55.4122883 44.11033694 -55.42016602 42.38720703 C-55.43165194 40.63972861 -55.45204982 38.89228433 -55.48168945 37.14501953 C-55.68831594 24.95290226 -55.68407989 14.59576113 -47 5.0625 C-34.48698114 -7.75325318 -15.56127472 -8.09186285 0 0 Z " fill="#17242A" transform="translate(458.125,149.625)"/>
<path d="M0 0 C0.75796875 0.43699219 1.5159375 0.87398437 2.296875 1.32421875 C10.60298248 6.49517782 15.3032717 12.6005101 18 22 C18.54916847 26.57627034 18.56173228 31.10187596 18.53125 35.70703125 C18.53699036 37.63236946 18.53699036 37.63236946 18.54284668 39.59660339 C18.54869926 42.29368675 18.54031131 44.99023531 18.52148438 47.68725586 C18.49858049 51.13510814 18.51191451 54.58172245 18.53577423 58.02953053 C18.55372334 61.33879616 18.54115352 64.6477305 18.53125 67.95703125 C18.53934692 69.19040726 18.54744385 70.42378326 18.55578613 71.6945343 C18.54317749 72.8431041 18.53056885 73.99167389 18.51757812 75.17504883 C18.51439575 76.18191238 18.51121338 77.18877594 18.50793457 78.22615051 C17.85679837 81.7820294 16.54882924 83.47356605 14 86 C10.22247178 86.53964689 7.97116472 86.49803319 4.5625 84.75 C3 83 3 83 3 79 C2.41992188 79.40992188 1.83984375 79.81984375 1.2421875 80.2421875 C0.46101563 80.78101563 -0.32015625 81.31984375 -1.125 81.875 C-1.89070313 82.40867187 -2.65640625 82.94234375 -3.4453125 83.4921875 C-10.83178739 87.85178889 -18.64441756 87.94607296 -27 87 C-35.89364091 84.12745621 -42.10424497 79.00882789 -47.75 71.75 C-51.87332111 62.67869355 -52.50503017 53.59674054 -52.44604492 43.78515625 C-52.43753734 41.63443991 -52.46639366 39.4863933 -52.49804688 37.3359375 C-52.55575991 26.28523853 -51.46222854 15.68598367 -44.125 6.9375 C-33.63957719 -3.58647216 -13.55806761 -7.86957403 0 0 Z " fill="#18252B" transform="translate(371,148)"/>
<path d="M0 0 C8.94349617 8.28909401 12.41071425 15.62059598 13.09283447 27.84506226 C13.15132362 31.12137752 13.14726887 34.39128528 13.1171875 37.66796875 C13.1143576 38.85099075 13.11152771 40.03401276 13.10861206 41.25288391 C13.097513 44.99161355 13.07242775 48.73009408 13.046875 52.46875 C13.03683192 55.02017881 13.0277084 57.57161141 13.01953125 60.12304688 C12.99760741 66.34253137 12.96423367 72.56187288 12.921875 78.78125 C12.261875 78.78125 11.601875 78.78125 10.921875 78.78125 C10.426875 80.26625 10.426875 80.26625 9.921875 81.78125 C6.79327005 83.34555248 4.36584575 83.13752284 0.921875 82.78125 C-1.515625 80.28125 -1.515625 80.28125 -3.078125 77.78125 C-6.55890557 79.12712478 -6.55890557 79.12712478 -9.88671875 80.8046875 C-17.29329368 84.75299398 -25.92970896 85.64888916 -34.02636719 83.18945312 C-42.4971977 79.93906829 -49.2896334 75.56714299 -53.27734375 67.29296875 C-56.14008973 60.5127809 -57.23427365 54.49550806 -57.24609375 47.13671875 C-57.24942215 46.40810135 -57.25275055 45.67948395 -57.25617981 44.92878723 C-57.26122597 43.39157743 -57.26358885 41.85435675 -57.26342773 40.31713867 C-57.26560827 37.98662894 -57.28377181 35.65659765 -57.30273438 33.32617188 C-57.30567013 31.82552243 -57.30765371 30.32487077 -57.30859375 28.82421875 C-57.31577927 28.13748581 -57.32296478 27.45075287 -57.33036804 26.74320984 C-57.28611705 17.19346837 -54.63298406 9.38491112 -47.890625 2.5703125 C-35.59197387 -8.63602422 -13.50168575 -11.01737557 0 0 Z " fill="#17242A" transform="translate(544.078125,151.21875)"/>
<path d="M0 0 C0.04628243 13.24732134 0.08184836 26.49462353 0.10362434 39.74200916 C0.1140742 45.89289513 0.12825536 52.04372589 0.15087891 58.19458008 C0.17256438 64.12732678 0.18455956 70.0600203 0.18975449 75.99280357 C0.19345797 78.25948614 0.20068967 80.5261657 0.21146011 82.7928257 C0.22591786 85.96066266 0.22798033 89.12827809 0.22705078 92.29614258 C0.23424133 93.23913208 0.24143188 94.18212158 0.24884033 95.15368652 C0.246091 96.01605423 0.24334167 96.87842194 0.24050903 97.766922 C0.24235262 98.51633969 0.24419621 99.26575739 0.24609566 100.03788471 C0 102 0 102 -2 105 C-4.87061258 105.43203101 -6.43399807 105.33095764 -8.95361328 103.85766602 C-9.56962402 103.32842529 -10.18563477 102.79918457 -10.8203125 102.25390625 C-11.51503662 101.66818848 -12.20976074 101.0824707 -12.92553711 100.47900391 C-13.65135986 99.84655762 -14.37718262 99.21411133 -15.125 98.5625 C-16.6496471 97.2694222 -18.17438666 95.97645341 -19.69921875 94.68359375 C-20.80595947 93.73395752 -20.80595947 93.73395752 -21.93505859 92.76513672 C-24.571395 90.51156469 -27.24774102 88.31451769 -29.9375 86.125 C-30.79085937 85.42761719 -31.64421875 84.73023438 -32.5234375 84.01171875 C-37.45093627 80.00909751 -42.41128293 76.04728605 -47.390625 72.109375 C-52.30423429 68.21018827 -57.14427095 64.23314284 -61.9375 60.1875 C-62.49348877 59.71916748 -63.04947754 59.25083496 -63.62231445 58.76831055 C-65.09085249 57.52310376 -66.54607745 56.26224131 -68 55 C-68.64066406 54.50113281 -69.28132813 54.00226563 -69.94140625 53.48828125 C-71 52 -71 52 -71.04296875 49.59765625 C-69.58995878 45.97873628 -67.47601215 44.67491634 -64.3125 42.4375 C-63.27738281 41.69371094 -62.24226563 40.94992187 -61.17578125 40.18359375 C-58.13560397 38.09323816 -55.07221334 36.04288384 -52 34 C-49.66078619 32.40435861 -47.33063903 30.79563195 -45 29.1875 C-40.16026285 25.85156099 -35.31208205 22.52872367 -30.44921875 19.2265625 C-29.50022705 18.58187012 -28.55123535 17.93717773 -27.57348633 17.27294922 C-25.6583127 15.97197263 -23.74278848 14.67151199 -21.8269043 13.37158203 C-16.08015493 9.45944002 -10.43275294 5.46780137 -4.92578125 1.22265625 C-3 0 -3 0 0 0 Z " fill="#FBFCFC" transform="translate(148,229)"/>
<path d="M0 0 C5.50996134 3.87916718 9.29481869 8.88580693 11.1875 15.375 C11.22875 16.365 11.27 17.355 11.3125 18.375 C11.37308594 19.02855469 11.43367188 19.68210937 11.49609375 20.35546875 C11.95829633 28.26893724 9.36725042 35.11157286 5.1875 41.75 C-2.43342469 48.70823558 -10.95989435 50.82765563 -21.046875 50.703125 C-30.48653696 49.85234002 -35.87653163 44.72914013 -41.875 37.77734375 C-46.72925413 31.34336468 -46.2537651 25.25847188 -45.6875 17.375 C-44.10171786 9.60714531 -39.69977131 3.5487977 -33.3125 -0.9375 C-21.98289912 -7.95997989 -11.02091699 -6.65692973 0 0 Z " fill="#1A262B" transform="translate(242.6875,64.625)"/>
<path d="M0 0 C4.19200253 1.94995221 7.12630071 4.24048246 9.51171875 8.27734375 C11.79821803 15.36052088 11.87857029 22.18696381 11.88671875 29.58984375 C11.91121094 30.74935547 11.93570313 31.90886719 11.9609375 33.10351562 C11.98842692 41.25412928 11.4958242 50.21001562 5.48974609 56.34155273 C0.7347749 60.12425236 -3.77274403 61.09202432 -9.76953125 60.73828125 C-14.94162992 59.86140245 -19.49909931 58.13391356 -23.36328125 54.52734375 C-27.59429689 46.06531247 -27.91888636 39.13018333 -27.80078125 29.71484375 C-27.80400391 28.42642578 -27.80722656 27.13800781 -27.81054688 25.81054688 C-27.72150933 10.11565564 -27.72150933 10.11565564 -22.61328125 4.46484375 C-22.12085938 3.90152344 -21.6284375 3.33820313 -21.12109375 2.7578125 C-15.5139755 -2.32615357 -6.97225368 -2.02490884 0 0 Z " fill="#FAFBFB" transform="translate(529.48828125,159.72265625)"/>
<path d="M0 0 C4.75564819 3.26560457 7.76160296 7.38138812 9.45703125 12.9296875 C9.93488046 17.40920445 9.99178692 21.84121481 9.92358398 26.33837891 C9.89458784 28.42561381 9.90300956 30.5103053 9.91601562 32.59765625 C9.90280215 41.03030436 9.65169199 47.93636157 4.20703125 54.7421875 C-1.2982937 59.12142326 -6.27248068 60.45568557 -13.18359375 60.21484375 C-19.09579198 59.50028999 -22.72518969 56.27771365 -26.54296875 51.9296875 C-29.16078541 48.10734344 -28.88370293 43.93711006 -28.9140625 39.47265625 C-28.92309097 38.65146805 -28.93211945 37.83027985 -28.94142151 36.98420715 C-28.95590898 35.24854162 -28.96480702 33.51282166 -28.96850586 31.77709961 C-28.98038298 29.13625803 -29.02956285 26.49776925 -29.08007812 23.85742188 C-29.08954556 22.16667801 -29.09677906 20.47591986 -29.1015625 18.78515625 C-29.12109482 18.00262985 -29.14062714 17.22010345 -29.16075134 16.41386414 C-29.11378663 10.63883903 -27.48113628 7.14849356 -23.54296875 2.9296875 C-17.1040877 -2.4132138 -7.74321489 -3.25904897 0 0 Z " fill="#FAFAFA" transform="translate(447.54296875,160.0703125)"/>
<path d="M0 0 C3.65782461 2.69964187 6.88082962 5.47459807 8.08056641 10.00463867 C8.91297769 15.57714284 8.80508717 21.22487903 8.85009766 26.84936523 C8.86664216 28.36124074 8.89391313 29.8730385 8.93212891 31.38452148 C9.31211693 46.5328265 9.31211693 46.5328265 4.88574219 52.41113281 C0.05105738 57.30033133 -4.6022646 58.96462959 -11.3125 59.125 C-16.56790476 59.07428439 -19.52614201 58.48831864 -23.5 54.8125 C-28.1997775 49.45997563 -29.80933377 45.92292085 -29.80078125 38.85546875 C-29.80506638 38.07488602 -29.8093515 37.29430328 -29.81376648 36.49006653 C-29.8195077 34.83835824 -29.82001156 33.18662468 -29.81567383 31.53491211 C-29.81252451 29.01957454 -29.83593709 26.50542562 -29.86132812 23.99023438 C-29.86360236 22.38281398 -29.86430404 20.77539043 -29.86328125 19.16796875 C-29.872491 18.42089157 -29.88170074 17.67381439 -29.89118958 16.90409851 C-29.83602832 10.61103333 -28.05409437 5.92011011 -23.5625 1.5 C-23.07910156 1.00886719 -22.59570312 0.51773438 -22.09765625 0.01171875 C-16.38769952 -4.27423899 -5.82923772 -3.49535119 0 0 Z " fill="#F9FAFA" transform="translate(364.5,161.1875)"/>
<path d="M0 0 C3.20556453 0.37241117 4.59185178 1.3096218 7.15625 3.24609375 C8.03023437 3.88933594 8.90421875 4.53257812 9.8046875 5.1953125 C10.74570313 5.89269531 11.68671875 6.59007812 12.65625 7.30859375 C14.69256352 8.73294429 16.73452341 10.14924728 18.78125 11.55859375 C19.88027695 12.31891125 20.97923308 13.07933111 22.078125 13.83984375 C24.64816802 15.61487909 27.22171061 17.3847471 29.796875 19.15234375 C30.50054199 19.63541992 31.20420898 20.11849609 31.92919922 20.61621094 C33.28975948 21.54979863 34.65073506 22.48278145 36.01220703 23.41503906 C40.26280912 26.33103652 44.4697445 29.30123321 48.65625 32.30859375 C47.15610047 36.84029544 43.48775982 38.70394986 39.65625 41.12109375 C38.28065557 42.01210378 36.90565547 42.90403205 35.53125 43.796875 C34.86222656 44.22822754 34.19320312 44.65958008 33.50390625 45.10400391 C31.18170015 46.61797918 28.91525366 48.20210635 26.65625 49.80859375 C21.89019381 53.18222952 17.0165186 56.38201582 12.1418457 59.59521484 C7.67755401 62.56302888 3.42755981 65.71097764 -0.70703125 69.12890625 C-2.34375 70.30859375 -2.34375 70.30859375 -4.34375 70.30859375 C-4.39003239 61.47705387 -4.42559825 52.64555555 -4.44737434 43.81392097 C-4.45782426 39.71330618 -4.47200537 35.61277417 -4.49462891 31.51220703 C-4.5163144 27.55703794 -4.52830952 23.60194864 -4.53350449 19.6467247 C-4.53720799 18.13559589 -4.54443975 16.62447158 -4.55521011 15.11337662 C-4.56966823 13.00143143 -4.57173037 10.88981851 -4.57080078 8.77783203 C-4.575242 7.57426056 -4.57968323 6.37068909 -4.58425903 5.13064575 C-4.28048809 1.56629982 -3.61159828 0.47552711 0 0 Z " fill="#F8F9F9" transform="translate(163.34375,135.69140625)"/>
<path d="M0 0 C2.52975341 2.52975341 2.26526401 3.42746398 2.30639648 6.93359375 C2.32238388 7.96226562 2.33837128 8.9909375 2.35484314 10.05078125 C2.36020584 11.16839844 2.36556854 12.28601563 2.37109375 13.4375 C2.38463646 15.16226562 2.38463646 15.16226562 2.39845276 16.921875 C2.41298922 19.3630919 2.42185038 21.80434807 2.42553711 24.24560547 C2.43736423 27.95739045 2.48646078 31.66747588 2.53710938 35.37890625 C2.54658144 37.75259607 2.55381272 40.1262961 2.55859375 42.5 C2.57812607 43.60142334 2.59765839 44.70284668 2.61778259 45.83764648 C2.57507479 53.24325803 1.15840441 58.79960256 -3 65 C-6.91834197 68.38779975 -11.87170923 70.23007888 -17.0625 70.5 C-23.38286133 69.69741443 -28.18457555 68.73649295 -32.875 64.25 C-37.49496832 57.18416611 -38.50258495 51.88745698 -38.4375 43.5625 C-38.45748047 42.65951172 -38.47746094 41.75652344 -38.49804688 40.82617188 C-38.49318022 34.10531987 -37.2998846 28.39061949 -32.48168945 23.43994141 C-28.24529582 19.80801117 -25.8005863 18.84692965 -20.3125 18.8125 C-19.29800781 18.79832031 -18.28351563 18.78414063 -17.23828125 18.76953125 C-14 19 -14 19 -7 21 C-7 14.4 -7 7.8 -7 1 C-4.48718205 -0.25640898 -2.78302919 -0.20872719 0 0 Z " fill="#1B262C" transform="translate(347,276)"/>
<path d="M0 0 C2.74656586 1.45406428 4.26182263 2.35403212 6.1875 4.6875 C6.67752137 8.53766788 6.70033694 10.79560967 4.75 14.1875 C0.88654685 16.44903355 -2.55789218 15.64848285 -6.8125 14.6875 C-7.4725 14.3575 -8.1325 14.0275 -8.8125 13.6875 C-14.77865776 13.05564623 -19.51413317 13.67470318 -24.8125 16.6875 C-29.35645234 21.35426186 -31.05948041 25.86000701 -31.06787109 32.31640625 C-31.07830948 33.97337524 -31.07830948 33.97337524 -31.08895874 35.66381836 C-31.08796173 36.8472583 -31.08696472 38.03069824 -31.0859375 39.25 C-31.10622051 41.76302534 -31.12707117 44.27604614 -31.1484375 46.7890625 C-31.17106996 50.74580721 -31.18752194 54.70237314 -31.19335938 58.65917969 C-31.20286514 62.48144717 -31.23661408 66.30291186 -31.2734375 70.125 C-31.26839203 71.30843994 -31.26334656 72.49187988 -31.25814819 73.71118164 C-31.35661654 81.91224154 -31.35661654 81.91224154 -33.72119141 85.93334961 C-35.98088075 87.82873461 -36.89994247 88.34670601 -39.8125 88.25 C-40.4725 88.25128906 -41.1325 88.25257813 -41.8125 88.25390625 C-44.79830245 87.40831767 -45.90941904 86.13800902 -47.8125 83.6875 C-48.20214307 80.93864628 -48.35016965 78.59167407 -48.31420898 75.84545898 C-48.31961197 75.05965454 -48.32501495 74.2738501 -48.33058167 73.4642334 C-48.34307553 70.87030216 -48.32657579 68.27747932 -48.30859375 65.68359375 C-48.30874871 63.88045697 -48.31023715 62.07731985 -48.31300354 60.27418518 C-48.31438777 56.49717466 -48.30182435 52.72054378 -48.27905273 48.94360352 C-48.25064758 44.09884503 -48.25341057 39.2547164 -48.26614285 34.40991116 C-48.27309227 30.68759262 -48.26531954 26.96542009 -48.25288582 23.24312019 C-48.24836557 21.45651878 -48.24803951 19.66990173 -48.25195122 17.88329887 C-48.25485677 15.3885869 -48.23838939 12.89474819 -48.21655273 10.40014648 C-48.22105438 9.65980667 -48.22555603 8.91946686 -48.23019409 8.1566925 C-48.15752467 3.16840042 -48.15752467 3.16840042 -46.40834045 0.73036194 C-43.43745782 -1.211073 -40.21558738 -0.85132217 -36.8125 -0.3125 C-34.8125 1.0625 -34.8125 1.0625 -33.8125 2.6875 C-33.8125 3.3475 -33.8125 4.0075 -33.8125 4.6875 C-32.8225 4.6875 -31.8325 4.6875 -30.8125 4.6875 C-30.8125 4.0275 -30.8125 3.3675 -30.8125 2.6875 C-21.21804022 -1.47613349 -10.26066432 -3.67001289 0 0 Z " fill="#19262B" transform="translate(619.8125,146.3125)"/>
<path d="M0 0 C4.78646764 3.84771733 6.60583227 6.83423484 7.30078125 12.859375 C7.55812002 16.46431725 7.66781908 20.05886647 7.73828125 23.671875 C7.78404297 24.61869141 7.82980469 25.56550781 7.87695312 26.54101562 C7.99185969 33.80011275 6.23747906 38.478663 1.30078125 43.859375 C-3.69051176 47.32319349 -9.6943798 48.62362723 -15.69921875 47.859375 C-21.18466439 46.8646551 -24.69804958 45.42569292 -28.13671875 40.921875 C-32.47800887 34.50270243 -33.0910539 29.84864353 -33.13671875 22.171875 C-33.16958984 21.21603516 -33.20246094 20.26019531 -33.23632812 19.27539062 C-33.29426521 11.54869058 -31.30793249 6.06821152 -26.26342773 0.18481445 C-19.85802637 -5.24283093 -6.54107772 -4.3907924 0 0 Z " fill="#1D292E" transform="translate(407.69921875,298.140625)"/>
<path d="M0 0 C0.76183594 -0.0103125 1.52367187 -0.020625 2.30859375 -0.03125 C5.49880083 0.72068789 6.55761494 1.9113907 8.5625 4.5 C8.96251279 7.178742 9.12033512 9.44918221 9.09594727 12.12670898 C9.10456284 12.8897937 9.11317841 13.65287842 9.12205505 14.43908691 C9.14473465 16.95843549 9.13797268 19.47667342 9.12890625 21.99609375 C9.13414127 23.74960155 9.14041731 25.50310652 9.14768982 27.25660706 C9.15809789 30.93105319 9.15352731 34.60511217 9.13891602 38.27954102 C9.12173409 42.98535632 9.14521327 47.68994997 9.18040562 52.39562893 C9.20238154 56.01683117 9.20093762 59.63774123 9.1926403 63.25898933 C9.19182075 64.99371747 9.19868491 66.72846704 9.21341133 68.46313286 C9.23086027 70.89081429 9.21631446 73.31630273 9.19360352 75.74389648 C9.20529572 76.45834427 9.21698792 77.17279205 9.22903442 77.90888977 C9.15620439 81.74097261 8.64117992 83.39982927 6.24571228 86.44960022 C3.5625 88.5 3.5625 88.5 0 89.0625 C-4.07010043 88.39648357 -5.00905006 87.77299248 -7.4375 84.5 C-7.82722203 81.78534109 -7.97525272 79.47746541 -7.93920898 76.765625 C-7.94461197 75.99118042 -7.95001495 75.21673584 -7.95558167 74.41882324 C-7.96807588 71.86215852 -7.95157414 69.30661842 -7.93359375 66.75 C-7.93374872 64.97167909 -7.93523742 63.19335783 -7.93800354 61.41503906 C-7.93938784 57.68930111 -7.92682446 53.96394798 -7.90405273 50.23828125 C-7.87566792 45.4631205 -7.87840496 40.68859917 -7.89114285 35.91339111 C-7.89809861 32.24164369 -7.89031194 28.57004399 -7.87788582 24.89831543 C-7.87337031 23.13766039 -7.87303539 21.37698949 -7.87695122 19.61633301 C-7.87986246 17.15534978 -7.86336137 14.69524696 -7.84155273 12.234375 C-7.84605438 11.5069812 -7.85055603 10.7795874 -7.85519409 10.03015137 C-7.80922492 6.90733261 -7.60207916 4.78954939 -6.04481506 2.04980469 C-3.96837074 0.04765637 -2.85395995 -0.03850199 0 0 Z " fill="#1B282E" transform="translate(643.4375,145.5)"/>
<path d="M0 0 C4.38118201 2.48326106 7.42338864 5.84677729 9.6875 10.375 C10.38788726 16.63415702 10.90633002 22.61749048 7.125 27.9375 C2.40525718 33.12921711 -1.66274943 35.55572821 -8.75 35.9375 C-15.36207214 35.66539827 -19.10830815 33.24314246 -23.9140625 28.94140625 C-28.02256484 24.33942458 -27.98315291 19.36432397 -27.73046875 13.40234375 C-26.97248363 7.91226463 -24.22630542 5.08267064 -20.25 1.5625 C-14.33394023 -2.84307643 -6.67845373 -3.0598999 0 0 Z " fill="#F7F8F8" transform="translate(234.3125,70.625)"/>
<path d="M0 0 C0.75861328 -0.0004834 1.51722656 -0.0009668 2.29882812 -0.00146484 C6.68090238 0.13037678 9.67392258 0.48459066 13.125 3.4375 C16.45321321 7.10207518 16.73213499 9.6342905 16.625 14.5625 C13.4375 14.875 13.4375 14.875 9.625 14.5625 C8.861875 13.7375 8.09875 12.9125 7.3125 12.0625 C3.76127106 8.75903122 1.51260185 9.07211135 -3.16796875 9.19140625 C-5.57612665 9.37691324 -5.57612665 9.37691324 -7.375 11.5625 C-7.54181109 14.64597826 -7.54181109 14.64597826 -7.375 17.5625 C-4.27791228 19.32089326 -1.64138388 19.9178701 1.875 20.375 C8.62530187 21.53915634 13.59508769 23.70793582 17.625 29.375 C19.16166778 34.27312854 19.83191017 38.09120775 17.55859375 42.74609375 C14.63253068 47.09133727 11.75006744 49.69316228 6.6875 51.16015625 C-0.84079407 52.62874392 -6.67771082 51.1897044 -13.375 47.5625 C-16.5646907 44.68399863 -17.25606986 43.0637056 -18.25 38.875 C-18.29125 37.781875 -18.3325 36.68875 -18.375 35.5625 C-17.715 34.9025 -17.055 34.2425 -16.375 33.5625 C-14 33.625 -14 33.625 -11.375 34.5625 C-7.375 38.77871622 -7.375 38.77871622 -7.375 41.5625 C-5.62681409 41.78554441 -3.87629677 41.9903645 -2.125 42.1875 C-1.15046875 42.30351562 -0.1759375 42.41953125 0.828125 42.5390625 C4.60148129 42.58859447 4.60148129 42.58859447 7.625 40.5625 C8.58083289 37.9031153 9.08462577 35.35443351 9.625 32.5625 C8.53960937 32.30855469 7.45421875 32.05460937 6.3359375 31.79296875 C4.89053276 31.44569618 3.44522535 31.09801836 2 30.75 C1.28714844 30.58435547 0.57429688 30.41871094 -0.16015625 30.24804688 C-6.53577752 28.69801051 -12.02482755 26.71825994 -16.375 21.5625 C-17.83167817 17.1924655 -18.24482886 12.94980204 -16.65625 8.58984375 C-12.81286539 1.29051249 -7.83303114 -0.02215609 0 0 Z " fill="#1E292E" transform="translate(196.375,294.4375)"/>
<path d="M0 0 C2.47526025 2.47526025 2.24107579 3.90392804 2.27645874 7.28218079 C2.27546173 7.99988144 2.27446472 8.71758209 2.2734375 9.45703125 C2.29373359 10.97722081 2.31458451 12.49740304 2.3359375 14.01757812 C2.35850479 16.4138811 2.37499362 18.80989461 2.38085938 21.20629883 C2.39040752 23.51957572 2.42421825 25.83154798 2.4609375 28.14453125 C2.45589203 28.85615921 2.45084656 29.56778717 2.44564819 30.30097961 C2.54071153 35.13091151 3.56824506 37.60919487 7 41 C9.6626398 42.16962113 12.11654846 42.29886062 15 42 C19.27480669 39.78770444 19.27480669 39.78770444 22 36 C22.13231295 33.47209688 22.20977946 30.96706256 22.24609375 28.4375 C22.27902096 26.90363989 22.31223279 25.36978586 22.34570312 23.8359375 C22.39320439 21.41312702 22.43765604 18.9903432 22.47680664 16.56738281 C22.51642281 14.23216389 22.5679796 11.89744534 22.62109375 9.5625 C22.6295079 8.83538818 22.63792206 8.10827637 22.64659119 7.35913086 C22.7732994 2.2267006 22.7732994 2.2267006 25 0 C28.625 -0.125 28.625 -0.125 32 0 C32.1242878 5.26521342 32.21466072 10.52955926 32.2746582 15.79589844 C32.29968775 17.58446136 32.33372244 19.37292317 32.37719727 21.16113281 C32.43836411 23.74309323 32.46632445 26.32369322 32.48828125 28.90625 C32.51408768 29.69616333 32.5398941 30.48607666 32.56648254 31.29992676 C32.56944416 37.26138083 30.90015034 41.45168965 27 46 C21.18290675 50.42047537 15.15492137 51.93420632 8 51 C2.51407614 49.3339046 -1.46561985 47.2298291 -4.77734375 42.46875 C-8.61298234 35.10578709 -7.52089156 26.49871456 -7.3125 18.4375 C-7.28738127 16.74417362 -7.26457442 15.05081127 -7.24414062 13.35742188 C-7.18943743 9.23738305 -7.10336695 5.11909345 -7 1 C-4.48718205 -0.25640898 -2.78302919 -0.20872719 0 0 Z " fill="#1C282C" transform="translate(269,295)"/>
<path d="M0 0 C3.5 0.125 3.5 0.125 4.5 1.125 C4.64426614 5.79345228 4.54208415 10.45365953 4.5 15.125 C11.43 15.125 18.36 15.125 25.5 15.125 C25.83 17.435 26.16 19.745 26.5 22.125 C25.5 23.125 25.5 23.125 23.45874023 23.23852539 C22.58419189 23.23328857 21.70964355 23.22805176 20.80859375 23.22265625 C19.86435547 23.21943359 18.92011719 23.21621094 17.94726562 23.21289062 C16.95404297 23.20451172 15.96082031 23.19613281 14.9375 23.1875 C13.94041016 23.18298828 12.94332031 23.17847656 11.91601562 23.17382812 C9.44395151 23.16200007 6.97200482 23.14551849 4.5 23.125 C4.55188254 27.68842738 4.64696776 32.24996342 4.75 36.8125 C4.76417969 38.10607422 4.77835938 39.39964844 4.79296875 40.73242188 C4.82519531 41.97958984 4.85742188 43.22675781 4.890625 44.51171875 C4.91157227 45.65858154 4.93251953 46.80544434 4.95410156 47.98706055 C5.60891863 51.75108728 6.80597951 53.45560492 9.5 56.125 C12.31022715 56.72619407 12.31022715 56.72619407 15.25 56.4375 C16.23484375 56.39238281 17.2196875 56.34726562 18.234375 56.30078125 C18.98203125 56.24277344 19.7296875 56.18476563 20.5 56.125 C20.80679688 55.51140625 21.11359375 54.8978125 21.4296875 54.265625 C22.453125 52.21875 23.4765625 50.171875 24.5 48.125 C26.48 48.125 28.46 48.125 30.5 48.125 C31.97896861 51.08293723 31.9355582 52.82720224 31.5 56.125 C28.57751521 60.89805474 24.84727071 64.34257643 19.5 66.125 C13.27646089 67.19223503 8.50983219 65.67359997 2.859375 63.09765625 C-1.40313664 59.53380132 -4.06051237 54.86291318 -4.94458008 49.35536194 C-5.09161843 46.26689435 -5.08917683 43.21623779 -5.0234375 40.125 C-5.01873444 39.00810791 -5.01403137 37.89121582 -5.00918579 36.74047852 C-4.98796607 33.20133891 -4.93136923 29.6637351 -4.875 26.125 C-4.85848117 23.71746198 -4.84413614 21.30990801 -4.83203125 18.90234375 C-4.79813794 14.52715076 -4.76371405 10.15210708 -4.69287109 5.77734375 C-4.68001068 4.90070068 -4.66715027 4.02405762 -4.65390015 3.12084961 C-4.38402935 -0.37896208 -3.65009528 0.13036055 0 0 Z " fill="#1E292E" transform="translate(225.5,279.875)"/>
<path d="M0 0 C2.92351427 1.53566303 5.04594046 3.33277054 7 6 C7.94254699 9.72243616 7.84628171 13.24417791 7.6875 17.0625 C7.69040039 18.53299805 7.69040039 18.53299805 7.69335938 20.03320312 C7.60537439 24.5022335 7.45548759 27.25878903 5.08203125 31.12109375 C1.84256068 34.04451841 -0.14584965 34.18160717 -4.4375 34.25 C-5.88962891 34.28867187 -5.88962891 34.28867187 -7.37109375 34.328125 C-10 34 -10 34 -11.72265625 32.734375 C-15.52678527 27.5691356 -15.46433391 22.85641297 -15.5625 16.625 C-15.61212891 15.69171875 -15.66175781 14.7584375 -15.71289062 13.796875 C-15.81247925 7.10072566 -15.81247925 7.10072566 -13.54248047 4.02539062 C-9.34170667 0.24996902 -5.64253293 -1.62039476 0 0 Z " fill="#F4F5F5" transform="translate(333,303)"/>
<path d="M0 0 C5.5 3 5.5 3 7 6 C7.29382599 9.59764598 7.27796031 13.20425394 7.3125 16.8125 C7.34150391 17.81087891 7.37050781 18.80925781 7.40039062 19.83789062 C7.46409866 27.19371822 7.46409866 27.19371822 5.23046875 31.07421875 C2.41621532 33.50403826 0.52086016 34.87147661 -3.21875 35.1875 C-3.9715625 35.125625 -4.724375 35.06375 -5.5 35 C-6.2528125 34.95875 -7.005625 34.9175 -7.78125 34.875 C-10.44030311 33.82635934 -11.75747384 32.4682535 -13.22363281 30.02392578 C-14.89742157 25.66049534 -14.65402602 21.04973484 -14.625 16.4375 C-14.65722656 15.40947266 -14.68945312 14.38144531 -14.72265625 13.32226562 C-14.73205913 6.06794677 -14.73205913 6.06794677 -12.76074219 3.19213867 C-8.6927426 -0.40869461 -5.1341272 -1.13297837 0 0 Z " fill="#F6F7F8" transform="translate(399,303)"/>
<path d="M0 0 C0.94875 0.04125 1.8975 0.0825 2.875 0.125 C4.06914517 2.51329035 4.00183207 3.98543332 4.00439453 6.65063477 C4.00754669 7.58823135 4.01069885 8.52582794 4.01394653 9.49183655 C4.0119223 10.50644455 4.00989807 11.52105255 4.0078125 12.56640625 C4.00876923 13.60441879 4.00972595 14.64243134 4.01071167 15.7118988 C4.01139292 17.90843771 4.00954244 20.10497862 4.00537109 22.30151367 C4.00001671 25.6769662 4.00532073 29.05228598 4.01171875 32.42773438 C4.01105807 34.55729196 4.0097771 36.68684947 4.0078125 38.81640625 C4.00983673 39.83303848 4.01186096 40.84967072 4.01394653 41.89710999 C4.01079437 42.83155441 4.00764221 43.76599884 4.00439453 44.72875977 C4.00359894 45.5554567 4.00280334 46.38215363 4.00198364 47.23390198 C3.875 49.125 3.875 49.125 2.875 50.125 C-0.0625 50.3125 -0.0625 50.3125 -3.125 50.125 C-5.56628669 47.68371331 -5.377187 47.05419186 -5.38378906 43.70703125 C-5.39009338 42.79268311 -5.39639771 41.87833496 -5.40289307 40.9362793 C-5.3988446 39.94668213 -5.39479614 38.95708496 -5.390625 37.9375 C-5.39253845 36.92405518 -5.3944519 35.91061035 -5.39642334 34.86645508 C-5.39778591 32.72118888 -5.39408447 30.57591447 -5.38574219 28.43066406 C-5.37504382 25.13848428 -5.38563519 21.84685022 -5.3984375 18.5546875 C-5.39711592 16.47395712 -5.39455355 14.39322709 -5.390625 12.3125 C-5.39467346 11.32290283 -5.39872192 10.33330566 -5.40289307 9.3137207 C-5.39658875 8.39937256 -5.39028442 7.48502441 -5.38378906 6.54296875 C-5.38219788 5.73625732 -5.38060669 4.9295459 -5.37896729 4.09838867 C-4.91202735 0.47014981 -3.45311392 0.13812456 0 0 Z " fill="#1A2429" transform="translate(363.125,294.875)"/>
<path d="M0 0 C2.8125 1.3125 2.8125 1.3125 5 3 C6.5202442 7.56073259 6.8271167 11.98390304 5 16.4375 C1.95405887 18.81714151 -1.24269062 19.19080087 -5 19 C-7.96218928 17.77648704 -9.44338765 16.76865515 -11.3125 14.1875 C-12.24084633 11.23367076 -12.37765935 9.084218 -12 6 C-8.50318172 0.75477258 -6.27296016 -0.49199688 0 0 Z " fill="#1C282C" transform="translate(646,114)"/>
<path d="M0 0 C0.99 0 1.98 0 3 0 C3 33.66 3 67.32 3 102 C2.01 102.495 2.01 102.495 1 103 C0.67 70 0.34 37 0 3 C-0.66 2.67 -1.32 2.34 -2 2 C-1.34 1.34 -0.68 0.68 0 0 Z " fill="#C1C4C6" transform="translate(145,229)"/>
<path d="M0 0 C1.38550197 2.77100394 1.1877467 4.9334706 1 8 C0.01 9.485 0.01 9.485 -1 11 C-4.16259871 11.40373601 -6.14012639 11.54458662 -8.875 9.8125 C-10.40659584 7.34492892 -10.42822025 5.85480169 -10 3 C-7.65127184 -1.00665392 -4.23309225 -0.239609 0 0 Z " fill="#252E33" transform="translate(367,277)"/>
<path d="M0 0 C0.66 0.33 1.32 0.66 2 1 C1.57847656 1.47050781 1.15695312 1.94101563 0.72265625 2.42578125 C0.17480469 3.04839844 -0.37304688 3.67101562 -0.9375 4.3125 C-1.48277344 4.92738281 -2.02804687 5.54226562 -2.58984375 6.17578125 C-5.56647739 10.02644028 -5.21296323 14.3064379 -5.31640625 18.94921875 C-5.33718735 19.72183548 -5.35796844 20.49445221 -5.37937927 21.29048157 C-5.44471038 23.7560648 -5.50368315 26.22175361 -5.5625 28.6875 C-5.60570087 30.36003691 -5.64931566 32.03256319 -5.69335938 33.70507812 C-5.8003749 37.8032775 -5.90168857 41.90158296 -6 46 C-8.37786031 42.43320954 -8.25735667 40.84157805 -8.265625 36.609375 C-8.26820313 35.34222656 -8.27078125 34.07507813 -8.2734375 32.76953125 C-8.26924805 32.10904785 -8.26505859 31.44856445 -8.26074219 30.76806641 C-8.25011276 28.77118266 -8.26165651 26.77422103 -8.2734375 24.77734375 C-8.27085937 23.50503906 -8.26828125 22.23273438 -8.265625 20.921875 C-8.26336914 19.76268555 -8.26111328 18.60349609 -8.25878906 17.40917969 C-7.83587734 11.83791617 -6.74571229 7.18565005 -2.875 3.0625 C-2.33617187 2.47597656 -1.79734375 1.88945312 -1.2421875 1.28515625 C-0.83226562 0.86105469 -0.42234375 0.43695313 0 0 Z " fill="#BDC1C5" transform="translate(510,161)"/>
<path d="M0 0 C0.66 0.33 1.32 0.66 2 1 C1.16855469 1.77923828 1.16855469 1.77923828 0.3203125 2.57421875 C-0.76636719 3.62029297 -0.76636719 3.62029297 -1.875 4.6875 C-2.95394531 5.71423828 -2.95394531 5.71423828 -4.0546875 6.76171875 C-6.08335887 9.09591291 -7.02992733 11.08467634 -8 14 C-8.84819206 11.63234732 -9.23923525 10.50796525 -8.14453125 8.18359375 C-5.68749782 4.9627904 -3.4802185 2.19124869 0 0 Z " fill="#BDC2C4" transform="translate(428,160)"/>
<path d="M0 0 C0.66 0.33 1.32 0.66 2 1 C1.38511719 1.67095703 1.38511719 1.67095703 0.7578125 2.35546875 C-2.25640074 5.73744485 -4.66050545 8.579668 -6 13 C-6.6796875 11.26171875 -6.6796875 11.26171875 -7 9 C-5.8203125 6.89453125 -5.8203125 6.89453125 -4.125 4.8125 C-3.57070313 4.11769531 -3.01640625 3.42289063 -2.4453125 2.70703125 C-1.659571 1.77900682 -0.8598311 0.8598311 0 0 Z " fill="#C3C6C9" transform="translate(510,161)"/>
<path d="M0 0 C-1.55500981 3.81684226 -4.03595495 6.19195732 -7 9 C-7.99 8.67 -8.98 8.34 -10 8 C-8.71451591 6.66070495 -7.42141845 5.32871357 -6.125 4 C-5.04605469 2.88625 -5.04605469 2.88625 -3.9453125 1.75 C-2 0 -2 0 0 0 Z " fill="#283135" transform="translate(502,150)"/>
<path d="M0 0 C0.66 0.33 1.32 0.66 2 1 C-1.08290155 5.22797927 -1.08290155 5.22797927 -3 7 C-5.8125 7.375 -5.8125 7.375 -8 7 C-5.4837822 4.39391727 -2.94865641 2.10618315 0 0 Z " fill="#2F383A" transform="translate(85,256)"/>
<path d="M0 0 C1.4384798 0.06423833 2.87666999 0.14163547 4.3125 0.25 C4.3125 0.58 4.3125 0.91 4.3125 1.25 C2.70375 1.37375 2.70375 1.37375 1.0625 1.5 C-2.9613451 2.30476902 -4.16919253 3.12729874 -6.6875 6.25 C-7.0175 5.59 -7.3475 4.93 -7.6875 4.25 C-5.84004374 0.30875998 -4.09551026 -0.02575793 0 0 Z " fill="#41494C" transform="translate(643.6875,145.75)"/>
<path d="M0 0 C-1.39332574 3.36720387 -2.9789286 4.9859524 -6 7 C-6 5.68 -6 4.36 -6 3 C-2.78571429 0 -2.78571429 0 0 0 Z " fill="#242E30" transform="translate(211,64)"/>
<path d="M0 0 C0.99 0.33 1.98 0.66 3 1 C-0.32307692 4.93846154 -0.32307692 4.93846154 -3.75 5.25 C-4.4925 5.1675 -5.235 5.085 -6 5 C-2.25 1.125 -2.25 1.125 0 0 Z " fill="#31383B" transform="translate(201,177)"/>
<path d="M0 0 C2.31 0 4.62 0 7 0 C6.67 1.32 6.34 2.64 6 4 C4.02 3.34 2.04 2.68 0 2 C0 1.34 0 0.68 0 0 Z " fill="#3B4144" transform="translate(360,277)"/>
</svg>
