<?xml version="1.0" encoding="UTF-8"?>
<svg version="1.1" xmlns="http://www.w3.org/2000/svg" width="467" height="456">
<path d="M0 0 C154.11 0 308.22 0 467 0 C467 150.48 467 300.96 467 456 C312.89 456 158.78 456 0 456 C0 305.52 0 155.04 0 0 Z " fill="#F5F4F0" transform="translate(0,0)"/>
<path d="M0 0 C9.41252723 -0.49926041 16.15459721 3.00752319 23.43847656 8.59228516 C27.17587098 11.40741127 31.06650953 13.99640673 34.94140625 16.6171875 C41.07690187 20.78767027 47.13335854 25.02479542 53.10546875 29.42578125 C55.84055981 31.39453874 58.62898682 33.26069541 61.44140625 35.1171875 C65.75767689 37.96703286 69.99652749 40.90498136 74.19140625 43.9296875 C82.8893177 50.19966582 91.76222729 56.2144388 100.62890625 62.2421875 C108.80889461 58.21352709 116.22299458 52.88377042 123.60229492 47.56176758 C137.24700542 37.73446714 151.13176362 28.23686385 165.03100586 18.77441406 C170.94565973 14.7377406 176.76801516 10.58640969 182.55078125 6.36328125 C188.61617832 2.18369926 192.8652764 -0.48958962 200.50390625 -0.3203125 C201.20572021 -0.30935547 201.90753418 -0.29839844 202.63061523 -0.28710938 C211.07918043 0.06454787 215.91228684 3.1678585 221.56640625 9.1796875 C226.2468183 14.568247 226.92508119 20.28061864 226.86941528 27.21481323 C226.87197856 28.39244081 226.87197856 28.39244081 226.87459362 29.59385884 C226.8778782 32.21484749 226.86690189 34.83557804 226.85595703 37.45654297 C226.85539269 39.33917739 226.85570992 41.22181225 226.85684204 43.10444641 C226.85741568 48.20933884 226.84565955 53.3141372 226.83169413 58.41900778 C226.81918862 63.75615048 226.81801641 69.09329535 226.81564331 74.43045044 C226.80942802 84.53444688 226.79301651 94.63840002 226.77294433 104.7423774 C226.75058688 116.24652377 226.73959228 127.75067221 226.72955346 139.25483489 C226.70865035 162.91731058 226.67307035 186.57974479 226.62890625 210.2421875 C221.01890625 210.2421875 215.40890625 210.2421875 209.62890625 210.2421875 C209.62748123 207.91054031 209.62605621 205.57889313 209.62458801 203.17658997 C209.60880863 181.23627743 209.56553561 159.29614285 209.49681568 137.35593128 C209.46214711 126.07540024 209.4368077 114.79499164 209.43334961 103.5144043 C209.43031232 93.68343301 209.40985347 83.85267967 209.36838168 74.02179259 C209.3470287 68.8152649 209.33446291 63.60904725 209.34275246 58.40247536 C209.35027799 53.50300076 209.33453081 48.60415511 209.3008461 43.70479584 C209.29259474 41.90568839 209.29288412 40.1065186 209.30230904 38.30741692 C209.31390091 35.85176804 209.29486149 33.39819083 209.2681427 30.94270325 C209.27881596 30.22966012 209.28948922 29.516617 209.30048591 28.78196651 C209.22249689 24.94392475 208.70103277 23.33275235 206.27889538 20.29142284 C203.77433081 18.01693352 203.77433081 18.01693352 200.58984375 17.75390625 C197.32767354 18.29186308 195.85373027 19.05085202 193.25390625 21.0546875 C188.79888646 24.37411401 184.28416813 27.55576977 179.69140625 30.6796875 C175.09889813 33.82268691 170.54612786 37.00172858 166.06640625 40.3046875 C161.31272768 43.79544848 156.43881912 47.07026974 151.52270508 50.32495117 C133.59670031 62.20135132 116.11031483 74.72513497 98.62890625 87.2421875 C96.35852849 88.86782525 94.08773487 90.49287851 91.81640625 92.1171875 C91.24277344 92.52759277 90.66914063 92.93799805 90.078125 93.36083984 C86.94009296 95.6026624 83.79392152 97.83212082 80.63671875 100.046875 C72.27534759 105.91438316 63.99968721 111.8816068 55.78857422 117.95776367 C50.4048209 121.94003374 44.99812242 125.88809687 39.56640625 129.8046875 C38.8285791 130.33698975 38.09075195 130.86929199 37.33056641 131.41772461 C33.59047275 134.11381443 29.84598109 136.80364842 26.09765625 139.48828125 C24.58689217 140.57243271 23.07647378 141.65706606 21.56640625 142.7421875 C20.83284912 143.2690918 20.09929199 143.79599609 19.34350586 144.33886719 C13.10018332 148.84873504 6.98732805 153.52046544 0.93334961 158.28125 C0.2656958 158.80074219 -0.40195801 159.32023438 -1.08984375 159.85546875 C-1.67701172 160.31735596 -2.26417969 160.77924316 -2.86914062 161.25512695 C-4.37109375 162.2421875 -4.37109375 162.2421875 -6.37109375 162.2421875 C-6.36556299 163.03603002 -6.36003223 163.82987253 -6.35433388 164.64777088 C-6.22162072 183.99571694 -6.12243901 203.34357173 -6.06022072 222.69187641 C-6.02932983 232.04873857 -5.98724094 241.40529622 -5.91845703 250.76196289 C-5.8585085 258.92066843 -5.81990997 267.07915337 -5.80656278 275.23807305 C-5.79876501 279.55519096 -5.78053943 283.87167794 -5.73671341 288.18859291 C-5.69572725 292.25908749 -5.68347645 296.32869647 -5.69244766 300.39937782 C-5.69080853 301.88642199 -5.67902821 303.37349841 -5.6558609 304.86036301 C-5.51690228 314.24579627 -6.61058948 321.5198539 -12.37109375 329.2421875 C-15.29296875 331.8125 -15.29296875 331.8125 -18.12109375 333.3671875 C-19.53648437 334.17542969 -19.53648437 334.17542969 -20.98046875 335 C-27.26983705 338.2680051 -34.244882 338.45230683 -41.1015625 336.44140625 C-47.89387245 333.29901802 -53.00695707 328.3576556 -58.37109375 323.2421875 C-59.65578647 322.10923014 -60.94707964 320.9836955 -62.24609375 319.8671875 C-65.09353031 317.3921521 -67.87784265 314.85740807 -70.64477539 312.29272461 C-74.93191847 308.32118274 -79.24922901 304.46680117 -83.80859375 300.8046875 C-89.78057826 295.99775777 -95.33776668 290.79031192 -100.94189453 285.56689453 C-104.85721975 281.93782815 -108.854211 278.4322891 -113.0546875 275.13671875 C-121.16545728 268.74274692 -129.40591463 261.84297304 -130.77734375 251.04296875 C-131.00723605 242.48905952 -130.11564265 236.75052473 -124.37109375 230.2421875 C-120.57059301 226.62666689 -116.54834328 223.40031214 -112.37109375 220.2421875 C-111.41976562 219.51386719 -110.4684375 218.78554688 -109.48828125 218.03515625 C-107.01057434 216.16168576 -104.52027917 214.30694583 -102.02099609 212.46240234 C-98.98192129 210.21480012 -95.95805022 207.94690188 -92.93359375 205.6796875 C-92.27133789 205.18355957 -91.60908203 204.68743164 -90.92675781 204.17626953 C-85.21945097 199.89378261 -79.54333031 195.57097262 -73.87109375 191.2421875 C-65.6528445 184.97040481 -57.40405477 178.74183684 -49.12304688 172.55322266 C-47.44837805 171.30002149 -45.77634222 170.0434117 -44.10546875 168.78515625 C-43.1 168.02847656 -42.09453125 167.27179688 -41.05859375 166.4921875 C-40.21683594 165.85796875 -39.37507813 165.22375 -38.5078125 164.5703125 C-35.37109375 162.2421875 -35.37109375 162.2421875 -32.70342159 160.73120117 C-26.77282638 157.15288898 -26.77282638 157.15288898 -23.36413765 151.36346436 C-23.00526344 147.85853534 -22.98956453 144.49854297 -23.09399414 140.9765625 C-23.08905945 139.66175903 -23.08412476 138.34695557 -23.07904053 136.99230957 C-23.06892327 134.14506561 -23.09328363 131.3010077 -23.14512825 128.45422363 C-23.2271173 123.94791396 -23.23206046 119.44345633 -23.22740173 114.93652344 C-23.22922198 107.80581204 -23.28347138 100.67660521 -23.35966915 93.54633713 C-23.49459364 80.78392244 -23.54512345 68.02107546 -23.569107 55.25801468 C-23.57965219 50.78395075 -23.61462107 46.31094263 -23.67027009 41.83721924 C-23.69410579 39.72215115 -23.70900433 37.60723521 -23.72021484 35.49206543 C-23.73455122 32.92104887 -23.76342677 30.35005283 -23.81004333 27.77941895 C-23.8243623 19.52442753 -22.73927846 14.23082729 -17.29296875 7.78125 C-11.51799884 2.6917981 -7.53374975 0.76950986 0 0 Z " fill="#172328" transform="translate(165.37109375,115.7578125)"/>
<path d="M0 0 C0.07008023 17.77620412 0.12298332 35.5523724 0.15543652 53.32868481 C0.1709056 61.58253281 0.19199587 69.83629498 0.22631836 78.09008789 C0.2562195 85.2840734 0.27557471 92.47799674 0.28226548 99.67204267 C0.28617655 103.48127615 0.29536882 107.2903318 0.31719017 111.09950829 C0.3375667 114.68555965 0.34383151 118.27136007 0.33932304 121.85746384 C0.34054067 123.79957531 0.35667675 125.74165951 0.3732605 127.68370056 C0.36913651 128.84331299 0.36501251 130.00292542 0.36076355 131.19767761 C0.36352893 132.20335376 0.36629431 133.2090299 0.36914349 134.24518108 C-0.06517897 137.48641318 -1.08502065 139.37110635 -3 142 C-6.31157203 143.65578602 -9.44606942 143.73617133 -13 143 C-15.14450608 141.65044014 -16.79625081 140.08345942 -18.61328125 138.31640625 C-21.56017732 135.45632545 -24.67629174 132.83603146 -27.8125 130.1875 C-32.17508545 126.46894565 -36.46774903 122.69370361 -40.6875 118.8125 C-44.11898144 115.66073175 -47.61146509 112.65975619 -51.25 109.75 C-56.47810462 105.5333068 -61.34149701 101.0006494 -66.21484375 96.38623047 C-71.17144384 91.71412911 -76.27715185 87.25411704 -81.52075195 82.90698242 C-85.87531606 79.25811139 -88.62217908 76.88910459 -89.75 71.25 C-89.6247837 68.42741584 -89.19291422 67.23972428 -87.40625 65.01953125 C-85.02983417 62.86267558 -82.56930586 60.92332982 -80 59 C-78.6078125 57.93458984 -78.6078125 57.93458984 -77.1875 56.84765625 C-75.18598644 55.33321314 -73.17512781 53.83106031 -71.15625 52.33984375 C-67.99050025 49.99295749 -64.86705988 47.59859211 -61.75 45.1875 C-53.59007292 38.88696816 -45.32511202 32.72705441 -37.06738281 26.55566406 C-35.1485236 25.12119619 -33.23042515 23.68571644 -31.3125 22.25 C-30.67578369 21.7741748 -30.03906738 21.29834961 -29.38305664 20.80810547 C-25.36398148 17.79711679 -21.37224015 14.75296436 -17.39453125 11.6875 C-16.43828857 10.95241211 -15.4820459 10.21732422 -14.49682617 9.45996094 C-12.60451128 8.00376487 -10.71526696 6.54356858 -8.8293457 5.07910156 C-7.54096802 4.08861816 -7.54096802 4.08861816 -6.2265625 3.078125 C-5.45908691 2.48418945 -4.69161133 1.89025391 -3.90087891 1.27832031 C-2 0 -2 0 0 0 Z " fill="#F3F2EE" transform="translate(142,292)"/>
<path d="M0 0 C3.1798401 1.79362029 6.09112561 3.7979549 9 6 C9.92619141 6.64388672 9.92619141 6.64388672 10.87109375 7.30078125 C17.94428921 12.64112259 23.36558584 21.62581137 24.78515625 30.3984375 C26.07924225 46.0686425 23.98655452 58.29884634 14 71 C11.22824173 73.77708857 8.30149185 75.89333377 5 78 C4.20851563 78.58007812 3.41703125 79.16015625 2.6015625 79.7578125 C-7.33157208 86.02063929 -19.69184907 85.57778933 -31 84 C-42.48700811 81.1773533 -51.14406005 72.75845045 -57.375 63.0625 C-63.29700701 52.30418726 -65.12070067 40.09385204 -62.30859375 28.03515625 C-61.37264068 25.55625127 -60.27968232 23.31867203 -59 21 C-58.59910156 20.17242187 -58.19820312 19.34484375 -57.78515625 18.4921875 C-52.25587927 8.01060157 -43.16936044 1.50084432 -32 -2 C-22.76065307 -5.07978231 -8.70709823 -4.26567932 0 0 Z " fill="#18252A" transform="translate(286,18)"/>
<path d="M0 0 C2.53515625 1.43359375 2.53515625 1.43359375 5.0625 3.4375 C6.01898438 4.17226562 6.97546875 4.90703125 7.9609375 5.6640625 C9.46527344 6.82035156 9.46527344 6.82035156 11 8 C13.05285186 9.45124489 15.11568952 10.8884516 17.1875 12.3125 C17.72608643 12.68391113 18.26467285 13.05532227 18.81958008 13.43798828 C21.80423267 15.49556006 24.79457784 17.54480479 27.78515625 19.59375 C35.43852421 24.84027881 43.05070752 30.13846455 50.62158203 35.50341797 C56.23286743 39.47382553 61.88468256 43.38230837 67.56054688 47.25976562 C71.74533641 50.12165015 75.88271737 53.04169538 80 56 C78.66587886 60.00236342 76.806736 60.74003433 73.3125 63.0625 C72.11262061 63.87141676 70.91342331 64.68134602 69.71484375 65.4921875 C68.78647705 66.11625488 68.78647705 66.11625488 67.83935547 66.75292969 C64.98636686 68.68723628 62.17794121 70.68159787 59.375 72.6875 C58.51950562 73.29899902 58.51950562 73.29899902 57.64672852 73.92285156 C51.82716706 78.09856301 46.06996753 82.35856762 40.31005859 86.6159668 C34.89829594 90.61251955 29.46026632 94.57002619 24 98.5 C17.56211816 103.13792884 11.14483561 107.80286456 4.75 112.5 C3.96367187 113.07556641 3.17734375 113.65113281 2.3671875 114.24414062 C-0.98324078 116.71058913 -4.26827295 119.19117786 -7.421875 121.90625 C-10 124 -10 124 -12 124 C-12.0934658 108.70113352 -12.16399019 93.40228023 -12.20724869 78.10319233 C-12.22786882 70.99944321 -12.25597862 63.89587154 -12.30175781 56.79223633 C-12.34590377 49.93876142 -12.36912796 43.08547114 -12.37950897 36.23186302 C-12.38690836 33.61513553 -12.40135732 30.99841829 -12.42292023 28.38176918 C-12.45189294 24.72084235 -12.4559584 21.06068096 -12.45410156 17.3996582 C-12.46848267 16.31424744 -12.48286377 15.22883667 -12.49768066 14.11053467 C-12.45723404 6.75669411 -12.45723404 6.75669411 -10.09661865 2.85002136 C-6.68530208 -0.16006754 -4.51894042 -0.39271086 0 0 Z " fill="#F4F3EE" transform="translate(171,133)"/>
<path d="M0 0 C6.10449821 3.78956704 11.37759091 8.41416586 14.1015625 15.26171875 C15.88767563 22.98440934 16.11375421 32.14854356 11.83203125 39.046875 C9.92308071 41.55865203 8.06581899 43.56473202 5.64453125 45.609375 C5.01804687 46.14949219 4.3915625 46.68960938 3.74609375 47.24609375 C-3.20553192 52.62921182 -9.18092916 52.31320853 -17.6171875 51.3515625 C-23.95052378 50.18194834 -29.03260269 46.5992026 -32.93359375 41.578125 C-38.1070007 33.60988901 -38.62373308 25.13318071 -36.8125 15.81640625 C-34.18323018 7.85453285 -28.34491784 3.81914798 -21.515625 -0.57421875 C-15.02729561 -3.02640834 -6.33735928 -2.62642596 0 0 Z " fill="#F3F2EE" transform="translate(278.35546875,33.390625)"/>
<path d="M0 0 C0.66 0.33 1.32 0.66 2 1 C-1.33333333 4.33333333 -4.66666667 7.66666667 -8 11 C-8.33 10.34 -8.66 9.68 -9 9 C-6.31941902 5.42589203 -3.57410797 2.68058098 0 0 Z " fill="#CFD3D0" transform="translate(253,35)"/>
<path d="M0 0 C0.66 0.33 1.32 0.66 2 1 C1.67 2.32 1.34 3.64 1 5 C0.34 5 -0.32 5 -1 5 C-1 9.29 -1 13.58 -1 18 C-1.33 18 -1.66 18 -2 18 C-2.054138 15.75026553 -2.09285491 13.50015617 -2.125 11.25 C-2.14820313 9.99703125 -2.17140625 8.7440625 -2.1953125 7.453125 C-2.01537302 4.27179508 -1.68998582 2.63478104 0 0 Z " fill="#343B3C" transform="translate(37,352)"/>
<path d="M0 0 C-1.15173355 2.46800047 -2.04783565 4.04783565 -4 6 C-4.39764263 7.98821313 -4.73775349 9.98944339 -5 12 C-5.33 12 -5.66 12 -6 12 C-6.48979592 4.65306122 -6.48979592 4.65306122 -4.125 1.5 C-2 0 -2 0 0 0 Z " fill="#CFD2D0" transform="translate(59,355)"/>
</svg>
